<?xml version="1.0" standalone="no"?>
<!DOCTYPE svg PUBLIC "-//W3C//DTD SVG 20010904//EN"
 "http://www.w3.org/TR/2001/REC-SVG-20010904/DTD/svg10.dtd">
<svg version="1.0" xmlns="http://www.w3.org/2000/svg"
 width="700.000000pt" height="700.000000pt" viewBox="0 0 700.000000 700.000000"
 preserveAspectRatio="xMidYMid meet">
<metadata>
Created by potrace 1.14, written by Peter Selinger 2001-2017
</metadata>
<g transform="translate(0.000000,700.000000) scale(0.100000,-0.100000)"
fill="#000000" stroke="none">
<path d="M3278 6995 c-1 -1 -42 -6 -89 -9 -47 -4 -94 -8 -105 -10 -10 -2 -46
-7 -79 -11 -32 -4 -68 -9 -80 -11 -66 -13 -133 -26 -155 -30 -23 -5 -84 -19
-120 -28 -8 -3 -36 -9 -61 -15 -66 -15 -275 -86 -392 -132 -109 -44 -353 -162
-432 -209 -27 -17 -58 -33 -67 -36 -10 -4 -18 -10 -18 -15 0 -5 -5 -9 -11 -9
-22 0 -190 -118 -359 -252 -332 -264 -634 -616 -849 -988 -33 -58 -171 -335
-171 -345 0 -3 -9 -24 -20 -48 -102 -219 -216 -647 -246 -927 -2 -19 -7 -71
-12 -115 -11 -99 -12 -527 -2 -615 5 -36 11 -90 14 -121 4 -31 8 -66 11 -77 2
-11 6 -37 9 -58 14 -89 20 -116 57 -269 125 -523 385 -1030 735 -1436 316
-367 664 -640 1094 -858 375 -191 791 -311 1240 -358 95 -10 551 -10 650 -1
437 43 842 157 1220 344 465 228 881 563 1197 961 397 499 643 1074 733 1708
23 163 28 255 27 470 0 230 -7 329 -32 500 -1 11 -6 43 -10 70 -10 77 -63 310
-91 405 -225 757 -671 1394 -1294 1851 -212 156 -454 297 -660 384 -36 15 -83
35 -105 45 -169 73 -529 173 -745 206 -25 3 -52 8 -60 9 -8 2 -44 6 -80 10
-36 4 -81 10 -100 12 -42 5 -537 13 -542 8z"/>
</g>
</svg>
